<svg width="36" height="48" viewBox="0 0 36 48" fill="none" xmlns="http://www.w3.org/2000/svg">
<path d="M3.75937 43.7906L2.70937 44.6344C2.40937 44.8688 2.04375 45 1.66875 45C0.75 45 0 44.25 0 43.3313V18C0 8.0625 8.0625 0 18 0C27.9375 0 36 8.0625 36 18V43.3313C36 44.25 35.25 45 34.3313 45C33.9563 45 33.5906 44.8688 33.2906 44.6344L32.2406 43.7906C30.9844 42.7875 29.1656 42.9469 28.1062 44.1562L25.2469 47.4375C24.9375 47.7937 24.4781 48 24 48C23.5219 48 23.0719 47.7937 22.7531 47.4375L20.2594 44.5781C19.0688 43.2094 16.9406 43.2094 15.7406 44.5781L13.2469 47.4375C12.9375 47.7937 12.4781 48 12 48C11.5219 48 11.0719 47.7937 10.7531 47.4375L7.89375 44.1562C6.83437 42.9469 5.01562 42.7875 3.75937 43.7906ZM15 18C15 17.2044 14.6839 16.4413 14.1213 15.8787C13.5587 15.3161 12.7956 15 12 15C11.2044 15 10.4413 15.3161 9.87868 15.8787C9.31607 16.4413 9 17.2044 9 18C9 18.7956 9.31607 19.5587 9.87868 20.1213C10.4413 20.6839 11.2044 21 12 21C12.7956 21 13.5587 20.6839 14.1213 20.1213C14.6839 19.5587 15 18.7956 15 18ZM24 21C24.7956 21 25.5587 20.6839 26.1213 20.1213C26.6839 19.5587 27 18.7956 27 18C27 17.2044 26.6839 16.4413 26.1213 15.8787C25.5587 15.3161 24.7956 15 24 15C23.2044 15 22.4413 15.3161 21.8787 15.8787C21.3161 16.4413 21 17.2044 21 18C21 18.7956 21.3161 19.5587 21.8787 20.1213C22.4413 20.6839 23.2044 21 24 21Z" fill="#B3C4D6"/>
</svg>
