<svg width="25" height="24" viewBox="0 0 25 24" fill="none" xmlns="http://www.w3.org/2000/svg">
<path fill-rule="evenodd" clip-rule="evenodd" d="M12.4444 0C5.56889 0 0 5.50583 0 12.3035C0 17.7478 3.56222 22.3463 8.50889 23.9765C9.13111 24.0842 9.36444 23.715 9.36444 23.3921C9.36444 23.0999 9.34889 22.131 9.34889 21.1005C6.22222 21.6696 5.41333 20.347 5.16444 19.6549C5.02444 19.3012 4.41778 18.2092 3.88889 17.917C3.45333 17.6863 2.83111 17.1173 3.87333 17.1019C4.85333 17.0865 5.55333 17.9939 5.78667 18.363C6.90667 20.2239 8.69556 19.701 9.41111 19.3781C9.52 18.5783 9.84667 18.04 10.2044 17.7325C7.43556 17.4249 4.54222 16.3637 4.54222 11.6576C4.54222 10.3196 5.02444 9.21226 5.81778 8.35102C5.69333 8.04343 5.25778 6.78232 5.94222 5.09058C5.94222 5.09058 6.98444 4.76762 9.36444 6.3517C10.36 6.07487 11.4178 5.93645 12.4756 5.93645C13.5333 5.93645 14.5911 6.07487 15.5867 6.3517C17.9667 4.75224 19.0089 5.09058 19.0089 5.09058C19.6933 6.78232 19.2578 8.04343 19.1333 8.35102C19.9267 9.21226 20.4089 10.3042 20.4089 11.6576C20.4089 16.3791 17.5 17.4249 14.7311 17.7325C15.1822 18.1169 15.5711 18.8552 15.5711 20.0086C15.5711 21.6542 15.5556 22.9768 15.5556 23.3921C15.5556 23.715 15.7889 24.0995 16.4111 23.9765C21.3267 22.3463 24.8889 17.7325 24.8889 12.3035C24.8889 5.50583 19.32 0 12.4444 0Z" fill="#93ADC7"/>
</svg>
