<svg width="19" height="16" viewBox="0 0 19 16" fill="none" xmlns="http://www.w3.org/2000/svg">
<path d="M9.14154 0C9.64868 0 10.1165 0.267857 10.3737 0.707143L18.088 13.85C18.3487 14.2929 18.3487 14.8393 18.0951 15.2821C17.8415 15.725 17.3665 16 16.8558 16H1.42725C0.916539 16 0.441539 15.725 0.187968 15.2821C-0.0656039 14.8393 -0.0620325 14.2893 0.19511 13.85L7.9094 0.707143C8.16654 0.267857 8.6344 0 9.14154 0ZM9.14154 4.57143C8.66654 4.57143 8.2844 4.95357 8.2844 5.42857V9.42857C8.2844 9.90357 8.66654 10.2857 9.14154 10.2857C9.61654 10.2857 9.99868 9.90357 9.99868 9.42857V5.42857C9.99868 4.95357 9.61654 4.57143 9.14154 4.57143ZM10.2844 12.5714C10.2844 12.2683 10.164 11.9776 9.94966 11.7633C9.73533 11.549 9.44464 11.4286 9.14154 11.4286C8.83843 11.4286 8.54774 11.549 8.33342 11.7633C8.11909 11.9776 7.99868 12.2683 7.99868 12.5714C7.99868 12.8745 8.11909 13.1652 8.33342 13.3796C8.54774 13.5939 8.83843 13.7143 9.14154 13.7143C9.44464 13.7143 9.73533 13.5939 9.94966 13.3796C10.164 13.1652 10.2844 12.8745 10.2844 12.5714Z" fill="#93ADC7"/>
</svg>
